<mxfile host="65bd71144e" pages="2">
    <diagram id="isS5LTfEV-B5i4dPdamE" name="map1">
        <mxGraphModel dx="766" dy="1796" grid="1" gridSize="10" guides="1" tooltips="1" connect="1" arrows="1" fold="1" page="1" pageScale="1" pageWidth="1654" pageHeight="1169" math="0" shadow="0">
            <root>
                <mxCell id="0"/>
                <mxCell id="1" parent="0"/>
                <mxCell id="3" style="edgeStyle=orthogonalEdgeStyle;html=1;entryX=1;entryY=0.75;entryDx=0;entryDy=0;dashed=1;" parent="1" source="dkzeW-jVZ0bf77VlCHpo-9" target="dkzeW-jVZ0bf77VlCHpo-17" edge="1">
                    <mxGeometry relative="1" as="geometry">
                        <mxPoint x="620" y="-857.5" as="sourcePoint"/>
                        <Array as="points">
                            <mxPoint x="490" y="-780"/>
                            <mxPoint x="490" y="-990"/>
                        </Array>
                    </mxGeometry>
                </mxCell>
                <mxCell id="2" style="edgeStyle=orthogonalEdgeStyle;html=1;entryX=1;entryY=0.25;entryDx=0;entryDy=0;dashed=1;" parent="1" source="dkzeW-jVZ0bf77VlCHpo-4" target="dkzeW-jVZ0bf77VlCHpo-17" edge="1">
                    <mxGeometry relative="1" as="geometry">
                        <mxPoint x="690" y="-1141.5" as="sourcePoint"/>
                    </mxGeometry>
                </mxCell>
                <mxCell id="dkzeW-jVZ0bf77VlCHpo-2" style="edgeStyle=orthogonalEdgeStyle;rounded=0;orthogonalLoop=1;jettySize=auto;html=1;exitX=1;exitY=0.5;exitDx=0;exitDy=0;entryX=0;entryY=0.5;entryDx=0;entryDy=0;" parent="1" source="dkzeW-jVZ0bf77VlCHpo-3" edge="1">
                    <mxGeometry relative="1" as="geometry">
                        <mxPoint x="290" y="-895" as="targetPoint"/>
                    </mxGeometry>
                </mxCell>
                <mxCell id="dkzeW-jVZ0bf77VlCHpo-3" value="pymongo-api&lt;br&gt;&lt;i&gt;python3&lt;/i&gt;" style="rounded=1;whiteSpace=wrap;html=1;" parent="1" vertex="1">
                    <mxGeometry x="110" y="-925" width="120" height="60" as="geometry"/>
                </mxCell>
                <mxCell id="dkzeW-jVZ0bf77VlCHpo-4" value="shard1&lt;br&gt;&lt;i&gt;mongodb&lt;/i&gt;" style="shape=cylinder3;whiteSpace=wrap;html=1;boundedLbl=1;backgroundOutline=1;size=15;" parent="1" vertex="1">
                    <mxGeometry x="560" y="-1060" width="60" height="80" as="geometry"/>
                </mxCell>
                <mxCell id="dkzeW-jVZ0bf77VlCHpo-9" value="shard2&lt;br&gt;&lt;i style=&quot;border-color: var(--border-color);&quot;&gt;mongodb&lt;/i&gt;" style="shape=cylinder3;whiteSpace=wrap;html=1;boundedLbl=1;backgroundOutline=1;size=15;" parent="1" vertex="1">
                    <mxGeometry x="560" y="-817.5" width="60" height="80" as="geometry"/>
                </mxCell>
                <mxCell id="dkzeW-jVZ0bf77VlCHpo-13" style="edgeStyle=orthogonalEdgeStyle;rounded=0;orthogonalLoop=1;jettySize=auto;html=1;exitX=1;exitY=0.25;exitDx=0;exitDy=0;" parent="1" source="6" target="dkzeW-jVZ0bf77VlCHpo-4" edge="1">
                    <mxGeometry relative="1" as="geometry">
                        <mxPoint x="410" y="-910" as="sourcePoint"/>
                        <mxPoint x="690" y="-1114" as="targetPoint"/>
                        <Array as="points">
                            <mxPoint x="590" y="-910"/>
                        </Array>
                    </mxGeometry>
                </mxCell>
                <mxCell id="dkzeW-jVZ0bf77VlCHpo-14" style="edgeStyle=orthogonalEdgeStyle;rounded=0;orthogonalLoop=1;jettySize=auto;html=1;exitX=1;exitY=0.75;exitDx=0;exitDy=0;entryX=0.5;entryY=0;entryDx=0;entryDy=0;entryPerimeter=0;" parent="1" source="6" target="dkzeW-jVZ0bf77VlCHpo-9" edge="1">
                    <mxGeometry relative="1" as="geometry">
                        <mxPoint x="410" y="-880" as="sourcePoint"/>
                        <mxPoint x="620" y="-830" as="targetPoint"/>
                    </mxGeometry>
                </mxCell>
                <mxCell id="dkzeW-jVZ0bf77VlCHpo-16" style="edgeStyle=orthogonalEdgeStyle;rounded=0;orthogonalLoop=1;jettySize=auto;html=1;exitX=0.5;exitY=1;exitDx=0;exitDy=0;" parent="1" source="dkzeW-jVZ0bf77VlCHpo-17" target="6" edge="1">
                    <mxGeometry relative="1" as="geometry">
                        <mxPoint x="350" y="-925" as="targetPoint"/>
                    </mxGeometry>
                </mxCell>
                <mxCell id="dkzeW-jVZ0bf77VlCHpo-17" value="configSrv&lt;br&gt;&lt;i style=&quot;border-color: var(--border-color);&quot;&gt;mongodb&lt;/i&gt;" style="rounded=1;whiteSpace=wrap;html=1;" parent="1" vertex="1">
                    <mxGeometry x="290" y="-1035" width="120" height="60" as="geometry"/>
                </mxCell>
                <mxCell id="6" value="&lt;div style=&quot;border-color: var(--border-color); background-color: rgb(255, 255, 255); line-height: 20px;&quot;&gt;&lt;font style=&quot;border-color: var(--border-color);&quot;&gt;mongos1&lt;/font&gt;&lt;/div&gt;&lt;i style=&quot;border-color: var(--border-color);&quot;&gt;mongodb&lt;/i&gt;" style="rounded=1;whiteSpace=wrap;html=1;" parent="1" vertex="1">
                    <mxGeometry x="290" y="-925" width="120" height="60" as="geometry"/>
                </mxCell>
                <mxCell id="7" value="Схема 1:&amp;nbsp;Шардирование" style="text;html=1;strokeColor=none;fillColor=none;align=center;verticalAlign=middle;whiteSpace=wrap;rounded=0;fontSize=18;" parent="1" vertex="1">
                    <mxGeometry x="80" y="-1120" width="260" height="30" as="geometry"/>
                </mxCell>
            </root>
        </mxGraphModel>
    </diagram>
</mxfile>